PathFileType	4	(X/Y/Z)	../Python\walking\Walking12\task.trc
DataRate	CameraRate	NumFrames	NumMarkers	Units	OrigDataRate	OrigDataStartFrame	OrigNumFrames
200.000000	200.000000	4	30	mm	200.000000	266	426
Frame#	Time	CLAV			STRN			RASI			LASI			RTH1			RTH2			RTH3			RTB1			RTB2			RTB3			RD5M			RTOE			LTH1			LTH3			LTB1			LTB2			LTB3			LTOE			LD5M			LTH2			RHEE			T10			PE03			RPSI			PE02			LPSI			PE01			C7			RBAK			LHEE			
		X1	Y1	Z1	X2	Y2	Z2	X3	Y3	Z3	X4	Y4	Z4	X5	Y5	Z5	X6	Y6	Z6	X7	Y7	Z7	X8	Y8	Z8	X9	Y9	Z9	X10	Y10	Z10	X11	Y11	Z11	X12	Y12	Z12	X13	Y13	Z13	X14	Y14	Z14	X15	Y15	Z15	X16	Y16	Z16	X17	Y17	Z17	X18	Y18	Z18	X19	Y19	Z19	X20	Y20	Z20	X21	Y21	Z21	X22	Y22	Z22	X23	Y23	Z23	X24	Y24	Z24	X25	Y25	Z25	X26	Y26	Z26	X27	Y27	Z27	X28	Y28	Z28	X29	Y29	Z29	X30	Y30	Z30	

267	1.33	2022.500366210938	1408.740600585938	128.2390747070313	2088.695556640626	1220.799438476563	137.5014953613282	2079.179931640626	1026.202270507813	272.4310302734376	2073.073974609376	986.6194458007817	-0.3080389201641084	2094.677001953126	770.3464355468755	319.6377868652345	2046.393798828126	731.639587402344	313.322479248047	2077.655517578126	695.1564941406252	299.4573974609376	2173.932617187501	365.6112670898439	248.5847625732423	2144.324951171876	312.1279602050782	248.8296661376954	2185.777099609376	288.3927307128907	236.3371734619142	2313.469970703126	10.03091335296631	222.6070709228517	2366.718750000001	30.13183784484865	181.9680175781251	1918.890258789063	701.1491699218752	-24.48173713684083	1919.363159179688	622.9471435546877	-13.79699611663819	1749.515014648438	397.4258422851565	5.812109947204592	1703.338134765626	384.5055236816409	20.2302474975586	1717.927734375001	324.8741760253907	11.11393833160401	1611.739868164063	33.12850952148439	91.59412384033206	1574.677368164063	36.81409454345705	45.13196563720705	1884.300537109376	672.188415527344	-1.97218954563141	2157.413574218751	23.31030845642091	139.8203430175782	1861.285888671876	1234.641357421875	111.3810729980469	1900.167968750001	1032.268920898438	122.0422134399415	1910.244506835938	1051.56494140625	194.5585327148439	1904.776489257813	1037.494506835938	172.9209899902344	1903.684814453126	1043.220458984375	95.06937408447268	1912.428955078126	1094.657470703125	139.4960632324219	1908.827392578126	1499.935424804688	108.0160446166993	1874.003051757813	1408.84521484375	274.9584045410157	1507.410278320313	192.8502349853517	83.03721618652347	
268	1.335	2029.307250976563	1409.726318359375	128.8451385498047	2096.107421875001	1221.9873046875	137.7662353515626	2086.507080078126	1027.843505859375	272.7933349609376	2080.352539062501	986.611694335938	0.5529941320419314	2101.166992187501	771.6699218750005	320.1995849609376	2052.650390625001	733.2380981445315	314.4741210937501	2083.650878906251	696.6058349609377	300.3256835937501	2176.765380859376	365.9898681640626	249.0211029052736	2146.766357421876	312.7241516113282	249.3527374267579	2187.976074218751	288.665496826172	236.5962371826173	2313.538085937501	10.21530151367188	222.6323699951173	2366.949218750001	29.86875152587892	181.5130920410157	1928.834106445313	699.5867919921877	-23.61344718933106	1930.077758789063	621.3145751953127	-13.38744068145753	1760.674682617188	397.6189575195315	5.340597152709963	1714.404418945313	385.322448730469	19.93981933593751	1728.015380859376	325.4989624023439	10.34142971038819	1613.117309570313	34.28320312500001	91.38052368164065	1577.605957031251	39.56084442138673	44.85865020751955	1894.624511718751	670.1721801757815	-1.054406762123108	2157.450683593751	23.35488891601563	139.9394226074219	1868.645629882813	1235.146484375	111.7890701293946	1907.525512695313	1032.989013671875	122.053207397461	1917.518310546876	1052.673217773438	194.4760131835939	1912.085205078126	1038.486206054688	172.9158172607422	1911.073730468751	1043.764770507813	95.02162170410159	1919.816284179688	1095.45947265625	139.1769714355469	1915.377929687501	1500.628173828125	108.8311233520508	1880.996215820313	1409.209350585938	275.6846313476564	1516.266967773438	198.2463378906251	81.11101531982425	
269	1.34	2036.088745117188	1410.71630859375	129.4291992187501	2103.448242187501	1223.157836914063	138.0108184814454	2093.755371093751	1029.449462890625	273.1550598144532	2087.494873046876	986.647338867188	1.381488800048829	2107.567626953126	772.9436035156255	320.7680969238282	2058.833251953126	734.7991943359377	315.6182861328126	2089.575195312501	698.0159912109377	301.1877441406251	2179.410400390626	366.3469848632814	249.4801025390626	2149.007812500001	313.2963256835939	249.8459777832032	2189.992675781251	288.9200134277345	236.8829040527345	2313.554687500001	10.41998481750489	222.6528930664064	2367.103759765626	29.71107673645021	181.1462097167969	1938.837646484376	697.949645996094	-22.69420051574708	1940.936401367188	619.6099243164065	-12.92039489746094	1772.163940429688	397.7179260253909	4.824677467346193	1725.799560546876	386.0612792968752	19.58226394653321	1738.440795898438	326.0535888671876	9.593131065368656	1615.089721679688	35.65563964843751	91.08071899414065	1581.048461914063	42.52799224853517	44.53770828247072	1905.035766601563	668.0422973632815	-0.105764739215374	2157.437988281251	23.35558128356934	140.0499420166016	1875.936401367188	1235.691284179688	112.2113952636719	1914.777954101563	1033.718017578125	122.1068420410157	1924.710937500001	1053.779907226563	194.4323883056642	1919.306884765626	1039.480834960938	172.9511260986329	1918.352905273438	1044.319946289063	95.01999664306643	1927.116333007813	1096.265991210938	138.9063110351563	1921.914672851563	1501.3427734375	109.6329040527344	1887.977539062501	1409.61181640625	276.4078063964845	1525.459350585938	203.6117553710939	79.13343811035159	
270	1.345	2042.843505859376	1411.70703125	129.9908905029297	2110.716064453126	1224.306762695313	138.2365264892579	2100.926025390626	1031.0087890625	273.5166015625001	2094.503173828126	986.7287597656255	2.171799659729005	2113.872802734376	774.1557006835942	321.3383178710939	2064.928955078126	736.3152465820315	316.7487182617189	2095.404785156251	699.3735351562502	302.0375366210939	2181.873535156251	366.6763610839845	249.9657440185548	2151.057128906251	313.8392028808595	250.3155059814454	2191.834960937501	289.1515502929689	237.2033843994142	2313.533447265626	10.62449073791504	222.6698150634767	2367.200439453126	29.62789916992189	180.8589477539063	1948.889160156251	696.2689208984377	-21.72532653808594	1951.922729492188	617.8699951171877	-12.39305686950684	1783.965698242188	397.7413330078127	4.264129161834719	1737.506713867188	386.7390747070315	19.15452384948731	1749.191528320313	326.5545043945314	8.872788429260257	1617.727539062501	37.24687957763673	90.6864929199219	1585.048706054688	45.69792938232423	44.16151428222658	1915.524169921876	665.836364746094	0.877160489559174	2157.384033203126	23.32394790649415	140.158187866211	1883.155883789063	1236.2724609375	112.6506500244141	1921.925781250001	1034.453491210938	122.2090072631837	1931.822875976563	1054.880859375	194.4343566894532	1926.441406250001	1040.474487304688	173.0325775146485	1925.523071289063	1044.88427734375	95.07086944580081	1934.328857421876	1097.074340820313	138.6916656494141	1928.436523437501	1502.07666015625	110.4204635620118	1894.945312500001	1410.051147460938	277.1281127929689	1534.962036132813	208.9243927001954	77.14025878906253	
